<mxfile host="app.diagrams.net" modified="2022-05-20T02:34:42.666Z" agent="5.0 (Windows NT 10.0; Win64; x64) AppleWebKit/537.36 (KHTML, like Gecko) Chrome/97.0.4692.99 Safari/537.36" etag="Q5-hCFQMeQJSFrwVHSv0" version="18.0.8" type="github">
  <diagram id="BjncxYA5NqWjLkUP5t2P" name="Page-1">
    <mxGraphModel dx="1038" dy="547" grid="1" gridSize="10" guides="1" tooltips="1" connect="1" arrows="1" fold="1" page="1" pageScale="1" pageWidth="827" pageHeight="1169" math="0" shadow="0">
      <root>
        <mxCell id="0" />
        <mxCell id="1" parent="0" />
        <mxCell id="5ZKgEueDKcrBrXA8dDzn-1" value="&lt;p class=&quot;MsoNormal&quot; style=&quot;font-size: 14px;&quot;&gt;&lt;span style=&quot;font-family: Cambria; font-size: 14px;&quot;&gt;t_iie_trajectory&lt;/span&gt;&lt;/p&gt;" style="rounded=0;whiteSpace=wrap;html=1;fontSize=14;" vertex="1" parent="1">
          <mxGeometry x="40" y="110" width="130" height="30" as="geometry" />
        </mxCell>
        <mxCell id="5ZKgEueDKcrBrXA8dDzn-2" value="&lt;p class=&quot;MsoNormal&quot; style=&quot;font-size: 14px;&quot;&gt;patient_trajectory&lt;br style=&quot;font-size: 14px;&quot;&gt;&lt;/p&gt;" style="rounded=0;whiteSpace=wrap;html=1;fontSize=14;" vertex="1" parent="1">
          <mxGeometry x="130" y="200" width="140" height="30" as="geometry" />
        </mxCell>
        <mxCell id="5ZKgEueDKcrBrXA8dDzn-13" style="edgeStyle=orthogonalEdgeStyle;rounded=0;orthogonalLoop=1;jettySize=auto;html=1;exitX=0.5;exitY=0;exitDx=0;exitDy=0;fontSize=14;" edge="1" parent="1" source="5ZKgEueDKcrBrXA8dDzn-3" target="5ZKgEueDKcrBrXA8dDzn-12">
          <mxGeometry relative="1" as="geometry" />
        </mxCell>
        <mxCell id="5ZKgEueDKcrBrXA8dDzn-3" value="&lt;p class=&quot;MsoNormal&quot; style=&quot;font-size: 14px;&quot;&gt;patient_trajectory_complete&lt;/p&gt;" style="rounded=0;whiteSpace=wrap;html=1;fontSize=14;" vertex="1" parent="1">
          <mxGeometry x="410" y="180" width="200" height="30" as="geometry" />
        </mxCell>
        <mxCell id="5ZKgEueDKcrBrXA8dDzn-7" value="&lt;p class=&quot;MsoNormal&quot; style=&quot;font-size: 14px;&quot;&gt;patient_address&lt;/p&gt;" style="rounded=0;whiteSpace=wrap;html=1;fontSize=14;" vertex="1" parent="1">
          <mxGeometry x="440" y="280" width="140" height="30" as="geometry" />
        </mxCell>
        <mxCell id="5ZKgEueDKcrBrXA8dDzn-11" value="" style="endArrow=classic;html=1;rounded=0;fontSize=14;entryX=0;entryY=0.25;entryDx=0;entryDy=0;exitX=0.5;exitY=1;exitDx=0;exitDy=0;" edge="1" parent="1" source="5ZKgEueDKcrBrXA8dDzn-2" target="5ZKgEueDKcrBrXA8dDzn-7">
          <mxGeometry width="50" height="50" relative="1" as="geometry">
            <mxPoint x="310" y="250" as="sourcePoint" />
            <mxPoint x="360" y="200" as="targetPoint" />
          </mxGeometry>
        </mxCell>
        <mxCell id="5ZKgEueDKcrBrXA8dDzn-12" value="&lt;p class=&quot;MsoNormal&quot;&gt;&lt;span style=&quot;mso-spacerun:&#39;yes&#39;;font-family:&#39;Times New Roman&#39;;mso-fareast-font-family:宋体;&lt;br/&gt;font-size:10.5000pt;mso-font-kerning:1.0000pt;&quot;&gt;t_st_contact_patient_collide&lt;/span&gt;&lt;/p&gt;" style="rounded=0;whiteSpace=wrap;html=1;fontSize=14;" vertex="1" parent="1">
          <mxGeometry x="440" y="110" width="200" height="30" as="geometry" />
        </mxCell>
        <mxCell id="5ZKgEueDKcrBrXA8dDzn-14" value="" style="endArrow=classic;html=1;rounded=0;fontSize=14;entryX=0;entryY=0.25;entryDx=0;entryDy=0;exitX=1;exitY=0.5;exitDx=0;exitDy=0;" edge="1" parent="1" source="5ZKgEueDKcrBrXA8dDzn-1" target="5ZKgEueDKcrBrXA8dDzn-12">
          <mxGeometry width="50" height="50" relative="1" as="geometry">
            <mxPoint x="350" y="160" as="sourcePoint" />
            <mxPoint x="400" y="110" as="targetPoint" />
          </mxGeometry>
        </mxCell>
        <mxCell id="5ZKgEueDKcrBrXA8dDzn-15" value="" style="endArrow=classic;html=1;rounded=0;fontSize=14;exitX=0.75;exitY=1;exitDx=0;exitDy=0;" edge="1" parent="1" source="5ZKgEueDKcrBrXA8dDzn-1" target="5ZKgEueDKcrBrXA8dDzn-2">
          <mxGeometry width="50" height="50" relative="1" as="geometry">
            <mxPoint x="130" y="160" as="sourcePoint" />
            <mxPoint x="180" y="110" as="targetPoint" />
          </mxGeometry>
        </mxCell>
        <mxCell id="5ZKgEueDKcrBrXA8dDzn-16" value="&lt;p class=&quot;MsoNormal&quot;&gt;candidate_patient_trajectory&lt;br&gt;&lt;/p&gt;" style="rounded=0;whiteSpace=wrap;html=1;fontSize=14;" vertex="1" parent="1">
          <mxGeometry x="490" y="50" width="200" height="30" as="geometry" />
        </mxCell>
        <mxCell id="5ZKgEueDKcrBrXA8dDzn-17" value="" style="endArrow=classic;html=1;rounded=0;fontSize=14;exitX=0.25;exitY=0;exitDx=0;exitDy=0;" edge="1" parent="1" source="5ZKgEueDKcrBrXA8dDzn-12" target="5ZKgEueDKcrBrXA8dDzn-16">
          <mxGeometry width="50" height="50" relative="1" as="geometry">
            <mxPoint x="380" y="120" as="sourcePoint" />
            <mxPoint x="430" y="70" as="targetPoint" />
          </mxGeometry>
        </mxCell>
        <mxCell id="5ZKgEueDKcrBrXA8dDzn-18" value="" style="endArrow=classic;html=1;rounded=0;fontSize=14;exitX=1;exitY=0;exitDx=0;exitDy=0;entryX=0;entryY=0.5;entryDx=0;entryDy=0;" edge="1" parent="1" source="5ZKgEueDKcrBrXA8dDzn-1" target="5ZKgEueDKcrBrXA8dDzn-16">
          <mxGeometry width="50" height="50" relative="1" as="geometry">
            <mxPoint x="240" y="110" as="sourcePoint" />
            <mxPoint x="290" y="60" as="targetPoint" />
          </mxGeometry>
        </mxCell>
        <mxCell id="5ZKgEueDKcrBrXA8dDzn-19" value="" style="endArrow=classic;html=1;rounded=0;fontSize=14;entryX=0;entryY=0.75;entryDx=0;entryDy=0;" edge="1" parent="1" target="5ZKgEueDKcrBrXA8dDzn-3">
          <mxGeometry width="50" height="50" relative="1" as="geometry">
            <mxPoint x="270" y="210" as="sourcePoint" />
            <mxPoint x="350" y="180" as="targetPoint" />
          </mxGeometry>
        </mxCell>
        <mxCell id="5ZKgEueDKcrBrXA8dDzn-20" value="&lt;p class=&quot;MsoNormal&quot;&gt;candidate_patient_collide&lt;br&gt;&lt;/p&gt;" style="rounded=0;whiteSpace=wrap;html=1;fontSize=14;" vertex="1" parent="1">
          <mxGeometry x="700" y="100" width="200" height="30" as="geometry" />
        </mxCell>
        <mxCell id="5ZKgEueDKcrBrXA8dDzn-21" value="" style="endArrow=classic;html=1;rounded=0;fontSize=14;exitX=0.75;exitY=1;exitDx=0;exitDy=0;entryX=0;entryY=0.25;entryDx=0;entryDy=0;" edge="1" parent="1" source="5ZKgEueDKcrBrXA8dDzn-16" target="5ZKgEueDKcrBrXA8dDzn-20">
          <mxGeometry width="50" height="50" relative="1" as="geometry">
            <mxPoint x="710" y="310" as="sourcePoint" />
            <mxPoint x="760" y="260" as="targetPoint" />
          </mxGeometry>
        </mxCell>
        <mxCell id="5ZKgEueDKcrBrXA8dDzn-22" value="&lt;p class=&quot;MsoNormal&quot;&gt;candidate_patient_result&lt;br&gt;&lt;/p&gt;" style="rounded=0;whiteSpace=wrap;html=1;fontSize=14;" vertex="1" parent="1">
          <mxGeometry x="700" y="260" width="200" height="30" as="geometry" />
        </mxCell>
        <mxCell id="5ZKgEueDKcrBrXA8dDzn-23" value="" style="endArrow=classic;html=1;rounded=0;fontSize=14;entryX=0.5;entryY=0;entryDx=0;entryDy=0;" edge="1" parent="1" source="5ZKgEueDKcrBrXA8dDzn-20" target="5ZKgEueDKcrBrXA8dDzn-22">
          <mxGeometry width="50" height="50" relative="1" as="geometry">
            <mxPoint x="780" y="260" as="sourcePoint" />
            <mxPoint x="830" y="210" as="targetPoint" />
          </mxGeometry>
        </mxCell>
        <mxCell id="5ZKgEueDKcrBrXA8dDzn-24" value="" style="endArrow=classic;html=1;rounded=0;fontSize=14;exitX=1;exitY=0.5;exitDx=0;exitDy=0;entryX=0;entryY=0.75;entryDx=0;entryDy=0;" edge="1" parent="1" source="5ZKgEueDKcrBrXA8dDzn-7" target="5ZKgEueDKcrBrXA8dDzn-22">
          <mxGeometry width="50" height="50" relative="1" as="geometry">
            <mxPoint x="750" y="420" as="sourcePoint" />
            <mxPoint x="800" y="370" as="targetPoint" />
          </mxGeometry>
        </mxCell>
        <mxCell id="5ZKgEueDKcrBrXA8dDzn-25" value="&lt;p class=&quot;MsoNormal&quot; style=&quot;font-size: 14px;&quot;&gt;&lt;span style=&quot;font-family: Cambria; font-size: 14px;&quot;&gt;alluligeohash&lt;/span&gt;&lt;/p&gt;" style="rounded=0;whiteSpace=wrap;html=1;fontSize=14;" vertex="1" parent="1">
          <mxGeometry x="40" y="280" width="130" height="30" as="geometry" />
        </mxCell>
        <mxCell id="5ZKgEueDKcrBrXA8dDzn-26" value="" style="endArrow=classic;html=1;rounded=0;fontSize=14;exitX=1;exitY=0.5;exitDx=0;exitDy=0;entryX=0;entryY=0.5;entryDx=0;entryDy=0;" edge="1" parent="1" source="5ZKgEueDKcrBrXA8dDzn-25" target="5ZKgEueDKcrBrXA8dDzn-7">
          <mxGeometry width="50" height="50" relative="1" as="geometry">
            <mxPoint x="350" y="400" as="sourcePoint" />
            <mxPoint x="400" y="350" as="targetPoint" />
          </mxGeometry>
        </mxCell>
      </root>
    </mxGraphModel>
  </diagram>
</mxfile>
